<svg width="1440" height="1024" viewBox="0 0 1440 1024" fill="none" xmlns="http://www.w3.org/2000/svg">
<rect width="1440" height="1024" fill="#E3DEDE"/>
<g filter="url(#filter0_d_1_2)">
<rect x="248" y="220" width="944" height="583" rx="16" fill="white"/>
</g>
<path d="M248 236C248 227.163 255.163 220 264 220H552V803H264C255.163 803 248 795.837 248 787V236Z" fill="#1729CD"/>
<path d="M275.886 367.126C274.362 367.126 273.102 366.772 272.106 366.064C271.122 365.344 270.588 364.294 270.504 362.914H274.752C274.812 363.646 275.136 364.012 275.724 364.012C275.94 364.012 276.12 363.964 276.264 363.868C276.42 363.76 276.498 363.598 276.498 363.382C276.498 363.082 276.336 362.842 276.012 362.662C275.688 362.47 275.184 362.254 274.5 362.014C273.684 361.726 273.006 361.444 272.466 361.168C271.938 360.892 271.482 360.49 271.098 359.962C270.714 359.434 270.528 358.756 270.54 357.928C270.54 357.1 270.75 356.398 271.17 355.822C271.602 355.234 272.184 354.79 272.916 354.49C273.66 354.19 274.494 354.04 275.418 354.04C276.978 354.04 278.214 354.4 279.126 355.12C280.05 355.84 280.536 356.854 280.584 358.162H276.282C276.27 357.802 276.18 357.544 276.012 357.388C275.844 357.232 275.64 357.154 275.4 357.154C275.232 357.154 275.094 357.214 274.986 357.334C274.878 357.442 274.824 357.598 274.824 357.802C274.824 358.09 274.98 358.33 275.292 358.522C275.616 358.702 276.126 358.924 276.822 359.188C277.626 359.488 278.286 359.776 278.802 360.052C279.33 360.328 279.786 360.712 280.17 361.204C280.554 361.696 280.746 362.314 280.746 363.058C280.746 363.838 280.554 364.54 280.17 365.164C279.786 365.776 279.228 366.256 278.496 366.604C277.764 366.952 276.894 367.126 275.886 367.126ZM286.146 357.442V359.008H290.106V362.014H286.146V363.814H290.646V367H282.15V354.256H290.646V357.442H286.146ZM301.044 354.256V362.482C301.044 364.006 300.642 365.164 299.838 365.956C299.046 366.736 297.93 367.126 296.49 367.126C294.942 367.126 293.712 366.7 292.8 365.848C291.888 364.996 291.432 363.754 291.432 362.122H295.374C295.374 362.638 295.458 363.004 295.626 363.22C295.794 363.424 296.022 363.526 296.31 363.526C296.55 363.526 296.736 363.448 296.868 363.292C297 363.136 297.066 362.866 297.066 362.482V354.256H301.044ZM310.941 365.074H306.693L306.063 367H301.869L306.531 354.256H311.139L315.783 367H311.571L310.941 365.074ZM309.969 362.068L308.817 358.522L307.665 362.068H309.969ZM328.282 360.466C329.05 360.646 329.644 361.018 330.064 361.582C330.496 362.134 330.712 362.776 330.712 363.508C330.712 364.624 330.34 365.488 329.596 366.1C328.864 366.7 327.808 367 326.428 367H319.75V354.256H326.248C327.544 354.256 328.564 354.538 329.308 355.102C330.052 355.666 330.424 356.488 330.424 357.568C330.424 358.312 330.226 358.942 329.83 359.458C329.446 359.962 328.93 360.298 328.282 360.466ZM323.746 359.224H325.294C325.654 359.224 325.918 359.152 326.086 359.008C326.266 358.864 326.356 358.642 326.356 358.342C326.356 358.03 326.266 357.802 326.086 357.658C325.918 357.502 325.654 357.424 325.294 357.424H323.746V359.224ZM325.564 363.796C325.924 363.796 326.188 363.73 326.356 363.598C326.536 363.454 326.626 363.226 326.626 362.914C326.626 362.302 326.272 361.996 325.564 361.996H323.746V363.796H325.564ZM336.05 357.442V359.008H340.01V362.014H336.05V363.814H340.55V367H332.054V354.256H340.55V357.442H336.05ZM357.374 354.256V367H353.396V360.646L351.434 367H348.014L346.052 360.646V367H342.056V354.256H346.952L349.76 361.906L352.496 354.256H357.374ZM367.025 359.206V362.5H358.637V359.206H367.025ZM382.382 354.256L378.098 367H372.932L368.648 354.256H372.896L375.524 363.022L378.134 354.256H382.382ZM387.273 354.256V367H383.277V354.256H387.273ZM401.3 367H397.304L393.074 360.592V367H389.078V354.256H393.074L397.304 360.772V354.256H401.3V367ZM408.415 354.256C409.747 354.256 410.911 354.526 411.907 355.066C412.915 355.606 413.689 356.356 414.229 357.316C414.769 358.276 415.039 359.368 415.039 360.592C415.039 361.804 414.769 362.896 414.229 363.868C413.689 364.84 412.915 365.608 411.907 366.172C410.911 366.724 409.747 367 408.415 367H403.105V354.256H408.415ZM408.055 363.436C408.955 363.436 409.669 363.19 410.197 362.698C410.725 362.206 410.989 361.504 410.989 360.592C410.989 359.68 410.725 358.978 410.197 358.486C409.669 357.994 408.955 357.748 408.055 357.748H407.101V363.436H408.055ZM422.692 367.126C421.492 367.126 420.388 366.844 419.38 366.28C418.384 365.716 417.592 364.936 417.004 363.94C416.416 362.944 416.122 361.822 416.122 360.574C416.122 359.326 416.416 358.204 417.004 357.208C417.592 356.212 418.384 355.438 419.38 354.886C420.388 354.322 421.492 354.04 422.692 354.04C423.892 354.04 424.99 354.322 425.986 354.886C426.982 355.438 427.768 356.212 428.344 357.208C428.932 358.204 429.226 359.326 429.226 360.574C429.226 361.822 428.932 362.944 428.344 363.94C427.768 364.936 426.976 365.716 425.968 366.28C424.972 366.844 423.88 367.126 422.692 367.126ZM422.692 363.4C423.484 363.4 424.096 363.148 424.528 362.644C424.96 362.128 425.176 361.438 425.176 360.574C425.176 359.698 424.96 359.008 424.528 358.504C424.096 357.988 423.484 357.73 422.692 357.73C421.888 357.73 421.27 357.988 420.838 358.504C420.406 359.008 420.19 359.698 420.19 360.574C420.19 361.438 420.406 362.128 420.838 362.644C421.27 363.148 421.888 363.4 422.692 363.4ZM436.05 353.41L435.582 361.942H432.162L431.694 353.41H436.05ZM433.872 367.144C433.176 367.144 432.618 366.958 432.198 366.586C431.778 366.214 431.568 365.746 431.568 365.182C431.568 364.606 431.778 364.132 432.198 363.76C432.618 363.376 433.176 363.184 433.872 363.184C434.556 363.184 435.108 363.376 435.528 363.76C435.948 364.132 436.158 364.606 436.158 365.182C436.158 365.746 435.948 366.214 435.528 366.586C435.108 366.958 434.556 367.144 433.872 367.144ZM444.241 353.41L443.773 361.942H440.353L439.885 353.41H444.241ZM442.063 367.144C441.367 367.144 440.809 366.958 440.389 366.586C439.969 366.214 439.759 365.746 439.759 365.182C439.759 364.606 439.969 364.132 440.389 363.76C440.809 363.376 441.367 363.184 442.063 363.184C442.747 363.184 443.299 363.376 443.719 363.76C444.139 364.132 444.349 364.606 444.349 365.182C444.349 365.746 444.139 366.214 443.719 366.586C443.299 366.958 442.747 367.144 442.063 367.144ZM452.432 353.41L451.964 361.942H448.544L448.076 353.41H452.432ZM450.254 367.144C449.558 367.144 449 366.958 448.58 366.586C448.16 366.214 447.95 365.746 447.95 365.182C447.95 364.606 448.16 364.132 448.58 363.76C449 363.376 449.558 363.184 450.254 363.184C450.938 363.184 451.49 363.376 451.91 363.76C452.33 364.132 452.54 364.606 452.54 365.182C452.54 365.746 452.33 366.214 451.91 366.586C451.49 366.958 450.938 367.144 450.254 367.144Z" fill="white"/>
<path d="M274.24 414.616C274.24 413.904 274.36 413.288 274.6 412.768C274.848 412.24 275.184 411.84 275.608 411.568C276.032 411.288 276.508 411.148 277.036 411.148C277.476 411.148 277.856 411.24 278.176 411.424C278.496 411.6 278.74 411.844 278.908 412.156V411.232H281.56V418H278.908V417.076C278.74 417.388 278.496 417.636 278.176 417.82C277.856 417.996 277.476 418.084 277.036 418.084C276.508 418.084 276.032 417.948 275.608 417.676C275.184 417.396 274.848 416.996 274.6 416.476C274.36 415.948 274.24 415.328 274.24 414.616ZM278.908 414.616C278.908 414.256 278.816 413.976 278.632 413.776C278.448 413.576 278.212 413.476 277.924 413.476C277.636 413.476 277.4 413.576 277.216 413.776C277.032 413.976 276.94 414.256 276.94 414.616C276.94 414.976 277.032 415.256 277.216 415.456C277.4 415.656 277.636 415.756 277.924 415.756C278.212 415.756 278.448 415.656 278.632 415.456C278.816 415.256 278.908 414.976 278.908 414.616ZM282.396 414.616C282.396 413.912 282.54 413.3 282.828 412.78C283.124 412.252 283.532 411.848 284.052 411.568C284.58 411.288 285.18 411.148 285.852 411.148C286.732 411.148 287.472 411.396 288.072 411.892C288.68 412.388 289.064 413.076 289.224 413.956H286.404C286.3 413.604 286.096 413.428 285.792 413.428C285.576 413.428 285.404 413.528 285.276 413.728C285.156 413.928 285.096 414.224 285.096 414.616C285.096 415.008 285.156 415.304 285.276 415.504C285.404 415.704 285.576 415.804 285.792 415.804C286.096 415.804 286.3 415.628 286.404 415.276H289.224C289.064 416.156 288.68 416.844 288.072 417.34C287.472 417.836 286.732 418.084 285.852 418.084C285.18 418.084 284.58 417.944 284.052 417.664C283.532 417.384 283.124 416.984 282.828 416.464C282.54 415.936 282.396 415.32 282.396 414.616ZM296.621 414.556C296.621 414.74 296.609 414.916 296.585 415.084H292.301C292.341 415.668 292.585 415.96 293.033 415.96C293.321 415.96 293.529 415.828 293.657 415.564H296.477C296.381 416.044 296.177 416.476 295.865 416.86C295.561 417.236 295.173 417.536 294.701 417.76C294.237 417.976 293.725 418.084 293.165 418.084C292.493 418.084 291.893 417.944 291.365 417.664C290.845 417.384 290.437 416.984 290.141 416.464C289.853 415.936 289.709 415.32 289.709 414.616C289.709 413.912 289.853 413.3 290.141 412.78C290.437 412.252 290.845 411.848 291.365 411.568C291.893 411.288 292.493 411.148 293.165 411.148C293.837 411.148 294.433 411.288 294.953 411.568C295.481 411.84 295.889 412.232 296.177 412.744C296.473 413.256 296.621 413.86 296.621 414.556ZM293.921 413.92C293.921 413.696 293.849 413.528 293.705 413.416C293.561 413.296 293.381 413.236 293.165 413.236C292.693 413.236 292.417 413.464 292.337 413.92H293.921ZM300.475 418.084C299.835 418.084 299.267 417.98 298.771 417.772C298.283 417.564 297.895 417.276 297.607 416.908C297.319 416.54 297.155 416.124 297.115 415.66H299.671C299.703 415.86 299.787 416.008 299.923 416.104C300.067 416.2 300.247 416.248 300.463 416.248C300.599 416.248 300.707 416.22 300.787 416.164C300.867 416.1 300.907 416.024 300.907 415.936C300.907 415.784 300.823 415.676 300.655 415.612C300.487 415.548 300.203 415.476 299.803 415.396C299.315 415.3 298.911 415.196 298.591 415.084C298.279 414.972 298.003 414.78 297.763 414.508C297.531 414.236 297.415 413.86 297.415 413.38C297.415 412.964 297.523 412.588 297.739 412.252C297.963 411.908 298.291 411.64 298.723 411.448C299.155 411.248 299.679 411.148 300.295 411.148C301.207 411.148 301.919 411.372 302.431 411.82C302.951 412.268 303.263 412.852 303.367 413.572H301.003C300.963 413.388 300.879 413.248 300.751 413.152C300.623 413.048 300.451 412.996 300.235 412.996C300.099 412.996 299.995 413.024 299.923 413.08C299.851 413.128 299.815 413.204 299.815 413.308C299.815 413.444 299.899 413.548 300.067 413.62C300.235 413.684 300.503 413.752 300.871 413.824C301.359 413.92 301.771 414.028 302.107 414.148C302.443 414.268 302.735 414.476 302.983 414.772C303.231 415.06 303.355 415.46 303.355 415.972C303.355 416.372 303.239 416.732 303.007 417.052C302.775 417.372 302.439 417.624 301.999 417.808C301.567 417.992 301.059 418.084 300.475 418.084ZM307.425 418.084C306.785 418.084 306.217 417.98 305.721 417.772C305.233 417.564 304.845 417.276 304.557 416.908C304.269 416.54 304.105 416.124 304.065 415.66H306.621C306.653 415.86 306.737 416.008 306.873 416.104C307.017 416.2 307.197 416.248 307.413 416.248C307.549 416.248 307.657 416.22 307.737 416.164C307.817 416.1 307.857 416.024 307.857 415.936C307.857 415.784 307.773 415.676 307.605 415.612C307.437 415.548 307.153 415.476 306.753 415.396C306.265 415.3 305.861 415.196 305.541 415.084C305.229 414.972 304.953 414.78 304.713 414.508C304.481 414.236 304.365 413.86 304.365 413.38C304.365 412.964 304.473 412.588 304.689 412.252C304.913 411.908 305.241 411.64 305.673 411.448C306.105 411.248 306.629 411.148 307.245 411.148C308.157 411.148 308.869 411.372 309.381 411.82C309.901 412.268 310.213 412.852 310.317 413.572H307.953C307.913 413.388 307.829 413.248 307.701 413.152C307.573 413.048 307.401 412.996 307.185 412.996C307.049 412.996 306.945 413.024 306.873 413.08C306.801 413.128 306.765 413.204 306.765 413.308C306.765 413.444 306.849 413.548 307.017 413.62C307.185 413.684 307.453 413.752 307.821 413.824C308.309 413.92 308.721 414.028 309.057 414.148C309.393 414.268 309.685 414.476 309.933 414.772C310.181 415.06 310.305 415.46 310.305 415.972C310.305 416.372 310.189 416.732 309.957 417.052C309.725 417.372 309.389 417.624 308.949 417.808C308.517 417.992 308.009 418.084 307.425 418.084ZM317.914 414.556C317.914 414.74 317.902 414.916 317.878 415.084H313.594C313.634 415.668 313.878 415.96 314.326 415.96C314.614 415.96 314.822 415.828 314.95 415.564H317.77C317.674 416.044 317.47 416.476 317.158 416.86C316.854 417.236 316.466 417.536 315.994 417.76C315.53 417.976 315.018 418.084 314.458 418.084C313.786 418.084 313.186 417.944 312.658 417.664C312.138 417.384 311.73 416.984 311.434 416.464C311.146 415.936 311.002 415.32 311.002 414.616C311.002 413.912 311.146 413.3 311.434 412.78C311.73 412.252 312.138 411.848 312.658 411.568C313.186 411.288 313.786 411.148 314.458 411.148C315.13 411.148 315.726 411.288 316.246 411.568C316.774 411.84 317.182 412.232 317.47 412.744C317.766 413.256 317.914 413.86 317.914 414.556ZM315.214 413.92C315.214 413.696 315.142 413.528 314.998 413.416C314.854 413.296 314.674 413.236 314.458 413.236C313.986 413.236 313.71 413.464 313.63 413.92H315.214ZM323.807 418.084C323.167 418.084 322.599 417.98 322.103 417.772C321.615 417.564 321.227 417.276 320.939 416.908C320.651 416.54 320.487 416.124 320.447 415.66H323.003C323.035 415.86 323.119 416.008 323.255 416.104C323.399 416.2 323.579 416.248 323.795 416.248C323.931 416.248 324.039 416.22 324.119 416.164C324.199 416.1 324.239 416.024 324.239 415.936C324.239 415.784 324.155 415.676 323.987 415.612C323.819 415.548 323.535 415.476 323.135 415.396C322.647 415.3 322.243 415.196 321.923 415.084C321.611 414.972 321.335 414.78 321.095 414.508C320.863 414.236 320.747 413.86 320.747 413.38C320.747 412.964 320.855 412.588 321.071 412.252C321.295 411.908 321.623 411.64 322.055 411.448C322.487 411.248 323.011 411.148 323.627 411.148C324.539 411.148 325.251 411.372 325.763 411.82C326.283 412.268 326.595 412.852 326.699 413.572H324.335C324.295 413.388 324.211 413.248 324.083 413.152C323.955 413.048 323.783 412.996 323.567 412.996C323.431 412.996 323.327 413.024 323.255 413.08C323.183 413.128 323.147 413.204 323.147 413.308C323.147 413.444 323.231 413.548 323.399 413.62C323.567 413.684 323.835 413.752 324.203 413.824C324.691 413.92 325.103 414.028 325.439 414.148C325.775 414.268 326.067 414.476 326.315 414.772C326.563 415.06 326.687 415.46 326.687 415.972C326.687 416.372 326.571 416.732 326.339 417.052C326.107 417.372 325.771 417.624 325.331 417.808C324.899 417.992 324.391 418.084 323.807 418.084ZM334.909 411.232V418H332.245V416.968C332.037 417.288 331.757 417.548 331.405 417.748C331.061 417.948 330.649 418.048 330.169 418.048C329.393 418.048 328.785 417.788 328.345 417.268C327.913 416.748 327.697 416.044 327.697 415.156V411.232H330.349V414.82C330.349 415.14 330.433 415.396 330.601 415.588C330.777 415.772 331.009 415.864 331.297 415.864C331.593 415.864 331.825 415.772 331.993 415.588C332.161 415.396 332.245 415.14 332.245 414.82V411.232H334.909ZM335.752 414.616C335.752 413.904 335.872 413.288 336.112 412.768C336.36 412.24 336.696 411.84 337.12 411.568C337.544 411.288 338.02 411.148 338.548 411.148C338.988 411.148 339.368 411.24 339.688 411.424C340.008 411.6 340.252 411.844 340.42 412.156V411.232H343.072V418H340.42V417.076C340.252 417.388 340.008 417.636 339.688 417.82C339.368 417.996 338.988 418.084 338.548 418.084C338.02 418.084 337.544 417.948 337.12 417.676C336.696 417.396 336.36 416.996 336.112 416.476C335.872 415.948 335.752 415.328 335.752 414.616ZM340.42 414.616C340.42 414.256 340.328 413.976 340.144 413.776C339.96 413.576 339.724 413.476 339.436 413.476C339.148 413.476 338.912 413.576 338.728 413.776C338.544 413.976 338.452 414.256 338.452 414.616C338.452 414.976 338.544 415.256 338.728 415.456C338.912 415.656 339.148 415.756 339.436 415.756C339.724 415.756 339.96 415.656 340.144 415.456C340.328 415.256 340.42 414.976 340.42 414.616ZM345.947 414.616C345.947 413.912 346.091 413.3 346.379 412.78C346.675 412.252 347.083 411.848 347.603 411.568C348.131 411.288 348.731 411.148 349.403 411.148C350.283 411.148 351.023 411.396 351.623 411.892C352.231 412.388 352.615 413.076 352.775 413.956H349.955C349.851 413.604 349.647 413.428 349.343 413.428C349.127 413.428 348.955 413.528 348.827 413.728C348.707 413.928 348.647 414.224 348.647 414.616C348.647 415.008 348.707 415.304 348.827 415.504C348.955 415.704 349.127 415.804 349.343 415.804C349.647 415.804 349.851 415.628 349.955 415.276H352.775C352.615 416.156 352.231 416.844 351.623 417.34C351.023 417.836 350.283 418.084 349.403 418.084C348.731 418.084 348.131 417.944 347.603 417.664C347.083 417.384 346.675 416.984 346.379 416.464C346.091 415.936 345.947 415.32 345.947 414.616ZM356.836 418.084C356.156 418.084 355.544 417.944 355 417.664C354.456 417.384 354.028 416.984 353.716 416.464C353.412 415.936 353.26 415.32 353.26 414.616C353.26 413.912 353.412 413.3 353.716 412.78C354.028 412.252 354.456 411.848 355 411.568C355.544 411.288 356.156 411.148 356.836 411.148C357.516 411.148 358.128 411.288 358.672 411.568C359.216 411.848 359.64 412.252 359.944 412.78C360.256 413.3 360.412 413.912 360.412 414.616C360.412 415.32 360.256 415.936 359.944 416.464C359.64 416.984 359.216 417.384 358.672 417.664C358.128 417.944 357.516 418.084 356.836 418.084ZM356.836 415.78C357.084 415.78 357.292 415.684 357.46 415.492C357.628 415.292 357.712 415 357.712 414.616C357.712 414.232 357.628 413.944 357.46 413.752C357.292 413.552 357.084 413.452 356.836 413.452C356.588 413.452 356.38 413.552 356.212 413.752C356.044 413.944 355.96 414.232 355.96 414.616C355.96 415 356.04 415.292 356.2 415.492C356.368 415.684 356.58 415.78 356.836 415.78ZM365.988 411.184C366.764 411.184 367.368 411.444 367.8 411.964C368.24 412.484 368.46 413.188 368.46 414.076V418H365.808V414.412C365.808 414.092 365.72 413.84 365.544 413.656C365.376 413.464 365.148 413.368 364.86 413.368C364.564 413.368 364.332 413.464 364.164 413.656C363.996 413.84 363.912 414.092 363.912 414.412V418H361.248V411.232H363.912V412.264C364.12 411.944 364.396 411.684 364.74 411.484C365.092 411.284 365.508 411.184 365.988 411.184ZM373.828 415.732V418H372.82C370.964 418 370.036 417.076 370.036 415.228V413.452H369.196V411.232H370.036V409.6H372.7V411.232H373.804V413.452H372.7V415.276C372.7 415.436 372.736 415.552 372.808 415.624C372.888 415.696 373.016 415.732 373.192 415.732H373.828ZM374.482 414.616C374.482 413.904 374.602 413.288 374.842 412.768C375.09 412.24 375.426 411.84 375.85 411.568C376.274 411.288 376.75 411.148 377.278 411.148C377.718 411.148 378.098 411.24 378.418 411.424C378.738 411.6 378.982 411.844 379.15 412.156V411.232H381.802V418H379.15V417.076C378.982 417.388 378.738 417.636 378.418 417.82C378.098 417.996 377.718 418.084 377.278 418.084C376.75 418.084 376.274 417.948 375.85 417.676C375.426 417.396 375.09 416.996 374.842 416.476C374.602 415.948 374.482 415.328 374.482 414.616ZM379.15 414.616C379.15 414.256 379.058 413.976 378.874 413.776C378.69 413.576 378.454 413.476 378.166 413.476C377.878 413.476 377.642 413.576 377.458 413.776C377.274 413.976 377.182 414.256 377.182 414.616C377.182 414.976 377.274 415.256 377.458 415.456C377.642 415.656 377.878 415.756 378.166 415.756C378.454 415.756 378.69 415.656 378.874 415.456C379.058 415.256 379.15 414.976 379.15 414.616ZM384.678 414.616C384.678 413.904 384.798 413.288 385.038 412.768C385.286 412.24 385.622 411.84 386.046 411.568C386.47 411.288 386.946 411.148 387.474 411.148C387.914 411.148 388.294 411.24 388.614 411.424C388.934 411.6 389.178 411.844 389.346 412.156V411.232H391.998V418H389.346V417.076C389.178 417.388 388.934 417.636 388.614 417.82C388.294 417.996 387.914 418.084 387.474 418.084C386.946 418.084 386.47 417.948 386.046 417.676C385.622 417.396 385.286 416.996 385.038 416.476C384.798 415.948 384.678 415.328 384.678 414.616ZM389.346 414.616C389.346 414.256 389.254 413.976 389.07 413.776C388.886 413.576 388.65 413.476 388.362 413.476C388.074 413.476 387.838 413.576 387.654 413.776C387.47 413.976 387.378 414.256 387.378 414.616C387.378 414.976 387.47 415.256 387.654 415.456C387.838 415.656 388.074 415.756 388.362 415.756C388.65 415.756 388.886 415.656 389.07 415.456C389.254 415.256 389.346 414.976 389.346 414.616ZM395.63 411.148C396.07 411.148 396.45 411.24 396.77 411.424C397.09 411.6 397.334 411.844 397.502 412.156V411.232H400.154V417.88C400.154 418.512 400.038 419.088 399.806 419.608C399.574 420.128 399.198 420.544 398.678 420.856C398.166 421.168 397.506 421.324 396.698 421.324C395.61 421.324 394.746 421.068 394.106 420.556C393.474 420.052 393.114 419.364 393.026 418.492H395.642C395.714 418.844 396.002 419.02 396.506 419.02C396.818 419.02 397.062 418.94 397.238 418.78C397.414 418.62 397.502 418.32 397.502 417.88V417.076C397.334 417.388 397.09 417.636 396.77 417.82C396.45 417.996 396.07 418.084 395.63 418.084C395.102 418.084 394.626 417.948 394.202 417.676C393.778 417.396 393.442 416.996 393.194 416.476C392.954 415.948 392.834 415.328 392.834 414.616C392.834 413.904 392.954 413.288 393.194 412.768C393.442 412.24 393.778 411.84 394.202 411.568C394.626 411.288 395.102 411.148 395.63 411.148ZM397.502 414.616C397.502 414.256 397.41 413.976 397.226 413.776C397.042 413.576 396.806 413.476 396.518 413.476C396.23 413.476 395.994 413.576 395.81 413.776C395.626 413.976 395.534 414.256 395.534 414.616C395.534 414.976 395.626 415.256 395.81 415.456C395.994 415.656 396.23 415.756 396.518 415.756C396.806 415.756 397.042 415.656 397.226 415.456C397.41 415.256 397.502 414.976 397.502 414.616ZM404.566 418.084C403.886 418.084 403.274 417.944 402.73 417.664C402.186 417.384 401.758 416.984 401.446 416.464C401.142 415.936 400.99 415.32 400.99 414.616C400.99 413.912 401.142 413.3 401.446 412.78C401.758 412.252 402.186 411.848 402.73 411.568C403.274 411.288 403.886 411.148 404.566 411.148C405.246 411.148 405.858 411.288 406.402 411.568C406.946 411.848 407.37 412.252 407.674 412.78C407.986 413.3 408.142 413.912 408.142 414.616C408.142 415.32 407.986 415.936 407.674 416.464C407.37 416.984 406.946 417.384 406.402 417.664C405.858 417.944 405.246 418.084 404.566 418.084ZM404.566 415.78C404.814 415.78 405.022 415.684 405.19 415.492C405.358 415.292 405.442 415 405.442 414.616C405.442 414.232 405.358 413.944 405.19 413.752C405.022 413.552 404.814 413.452 404.566 413.452C404.318 413.452 404.11 413.552 403.942 413.752C403.774 413.944 403.69 414.232 403.69 414.616C403.69 415 403.77 415.292 403.93 415.492C404.098 415.684 404.31 415.78 404.566 415.78ZM411.643 412.48C411.915 412.088 412.247 411.776 412.639 411.544C413.031 411.304 413.439 411.184 413.863 411.184V414.028H413.107C412.603 414.028 412.231 414.116 411.991 414.292C411.759 414.468 411.643 414.78 411.643 415.228V418H408.979V411.232H411.643V412.48ZM414.22 414.616C414.22 413.904 414.34 413.288 414.58 412.768C414.828 412.24 415.164 411.84 415.588 411.568C416.012 411.288 416.488 411.148 417.016 411.148C417.456 411.148 417.836 411.24 418.156 411.424C418.476 411.6 418.72 411.844 418.888 412.156V411.232H421.54V418H418.888V417.076C418.72 417.388 418.476 417.636 418.156 417.82C417.836 417.996 417.456 418.084 417.016 418.084C416.488 418.084 416.012 417.948 415.588 417.676C415.164 417.396 414.828 416.996 414.58 416.476C414.34 415.948 414.22 415.328 414.22 414.616ZM418.888 414.616C418.888 414.256 418.796 413.976 418.612 413.776C418.428 413.576 418.192 413.476 417.904 413.476C417.616 413.476 417.38 413.576 417.196 413.776C417.012 413.976 416.92 414.256 416.92 414.616C416.92 414.976 417.012 415.256 417.196 415.456C417.38 415.656 417.616 415.756 417.904 415.756C418.192 415.756 418.428 415.656 418.612 415.456C418.796 415.256 418.888 414.976 418.888 414.616ZM283.636 429.184C284.5 429.184 285.168 429.444 285.64 429.964C286.12 430.484 286.36 431.188 286.36 432.076V436H283.708V432.412C283.708 432.124 283.62 431.9 283.444 431.74C283.276 431.572 283.048 431.488 282.76 431.488C282.464 431.488 282.232 431.572 282.064 431.74C281.896 431.9 281.812 432.124 281.812 432.412V436H279.16V432.412C279.16 432.124 279.072 431.9 278.896 431.74C278.728 431.572 278.5 431.488 278.212 431.488C277.916 431.488 277.684 431.572 277.516 431.74C277.348 431.9 277.264 432.124 277.264 432.412V436H274.6V429.232H277.264V430.144C277.456 429.856 277.716 429.624 278.044 429.448C278.38 429.272 278.772 429.184 279.22 429.184C279.708 429.184 280.14 429.292 280.516 429.508C280.892 429.716 281.192 430.012 281.416 430.396C281.664 430.044 281.98 429.756 282.364 429.532C282.748 429.3 283.172 429.184 283.636 429.184ZM294.066 432.556C294.066 432.74 294.054 432.916 294.03 433.084H289.746C289.786 433.668 290.03 433.96 290.478 433.96C290.766 433.96 290.974 433.828 291.102 433.564H293.922C293.826 434.044 293.622 434.476 293.31 434.86C293.006 435.236 292.618 435.536 292.146 435.76C291.682 435.976 291.17 436.084 290.61 436.084C289.938 436.084 289.338 435.944 288.81 435.664C288.29 435.384 287.882 434.984 287.586 434.464C287.298 433.936 287.154 433.32 287.154 432.616C287.154 431.912 287.298 431.3 287.586 430.78C287.882 430.252 288.29 429.848 288.81 429.568C289.338 429.288 289.938 429.148 290.61 429.148C291.282 429.148 291.878 429.288 292.398 429.568C292.926 429.84 293.334 430.232 293.622 430.744C293.918 431.256 294.066 431.86 294.066 432.556ZM291.366 431.92C291.366 431.696 291.294 431.528 291.15 431.416C291.006 431.296 290.826 431.236 290.61 431.236C290.138 431.236 289.862 431.464 289.782 431.92H291.366ZM297.921 436.084C297.281 436.084 296.713 435.98 296.217 435.772C295.729 435.564 295.341 435.276 295.053 434.908C294.765 434.54 294.601 434.124 294.561 433.66H297.117C297.149 433.86 297.233 434.008 297.369 434.104C297.513 434.2 297.693 434.248 297.909 434.248C298.045 434.248 298.153 434.22 298.233 434.164C298.313 434.1 298.353 434.024 298.353 433.936C298.353 433.784 298.269 433.676 298.101 433.612C297.933 433.548 297.649 433.476 297.249 433.396C296.761 433.3 296.357 433.196 296.037 433.084C295.725 432.972 295.449 432.78 295.209 432.508C294.977 432.236 294.861 431.86 294.861 431.38C294.861 430.964 294.969 430.588 295.185 430.252C295.409 429.908 295.737 429.64 296.169 429.448C296.601 429.248 297.125 429.148 297.741 429.148C298.653 429.148 299.365 429.372 299.877 429.82C300.397 430.268 300.709 430.852 300.813 431.572H298.449C298.409 431.388 298.325 431.248 298.197 431.152C298.069 431.048 297.897 430.996 297.681 430.996C297.545 430.996 297.441 431.024 297.369 431.08C297.297 431.128 297.261 431.204 297.261 431.308C297.261 431.444 297.345 431.548 297.513 431.62C297.681 431.684 297.949 431.752 298.317 431.824C298.805 431.92 299.217 432.028 299.553 432.148C299.889 432.268 300.181 432.476 300.429 432.772C300.677 433.06 300.801 433.46 300.801 433.972C300.801 434.372 300.685 434.732 300.453 435.052C300.221 435.372 299.885 435.624 299.445 435.808C299.013 435.992 298.505 436.084 297.921 436.084ZM310.894 429.184C311.758 429.184 312.426 429.444 312.898 429.964C313.378 430.484 313.618 431.188 313.618 432.076V436H310.966V432.412C310.966 432.124 310.878 431.9 310.702 431.74C310.534 431.572 310.306 431.488 310.018 431.488C309.722 431.488 309.49 431.572 309.322 431.74C309.154 431.9 309.07 432.124 309.07 432.412V436H306.418V432.412C306.418 432.124 306.33 431.9 306.154 431.74C305.986 431.572 305.758 431.488 305.47 431.488C305.174 431.488 304.942 431.572 304.774 431.74C304.606 431.9 304.522 432.124 304.522 432.412V436H301.858V429.232H304.522V430.144C304.714 429.856 304.974 429.624 305.302 429.448C305.638 429.272 306.03 429.184 306.478 429.184C306.966 429.184 307.398 429.292 307.774 429.508C308.15 429.716 308.45 430.012 308.674 430.396C308.922 430.044 309.238 429.756 309.622 429.532C310.006 429.3 310.43 429.184 310.894 429.184ZM317.988 436.084C317.308 436.084 316.696 435.944 316.152 435.664C315.608 435.384 315.18 434.984 314.868 434.464C314.564 433.936 314.412 433.32 314.412 432.616C314.412 431.912 314.564 431.3 314.868 430.78C315.18 430.252 315.608 429.848 316.152 429.568C316.696 429.288 317.308 429.148 317.988 429.148C318.668 429.148 319.28 429.288 319.824 429.568C320.368 429.848 320.792 430.252 321.096 430.78C321.408 431.3 321.564 431.912 321.564 432.616C321.564 433.32 321.408 433.936 321.096 434.464C320.792 434.984 320.368 435.384 319.824 435.664C319.28 435.944 318.668 436.084 317.988 436.084ZM317.988 433.78C318.236 433.78 318.444 433.684 318.612 433.492C318.78 433.292 318.864 433 318.864 432.616C318.864 432.232 318.78 431.944 318.612 431.752C318.444 431.552 318.236 431.452 317.988 431.452C317.74 431.452 317.532 431.552 317.364 431.752C317.196 431.944 317.112 432.232 317.112 432.616C317.112 433 317.192 433.292 317.352 433.492C317.52 433.684 317.732 433.78 317.988 433.78ZM325.989 426.94L325.677 432.628H323.397L323.085 426.94H325.989ZM324.537 436.096C324.073 436.096 323.701 435.972 323.421 435.724C323.141 435.476 323.001 435.164 323.001 434.788C323.001 434.404 323.141 434.088 323.421 433.84C323.701 433.584 324.073 433.456 324.537 433.456C324.993 433.456 325.361 433.584 325.641 433.84C325.921 434.088 326.061 434.404 326.061 434.788C326.061 435.164 325.921 435.476 325.641 435.724C325.361 435.972 324.993 436.096 324.537 436.096Z" fill="white"/>
<rect x="277.5" y="483.5" width="193" height="42" rx="14.5" fill="#A9A9A9" stroke="white" stroke-width="3"/>
<rect x="742.5" y="705.5" width="193" height="42" rx="14.5" fill="#A9A9A9" stroke="#1729CD" stroke-width="3"/>
<path d="M354.377 502.628V503.672H357.017V505.676H354.377V506.876H357.377V509H351.713V500.504H357.377V502.628H354.377ZM366.529 509H363.865L361.045 504.728V509H358.381V500.504H361.045L363.865 504.848V500.504H366.529V509ZM374.405 500.504V502.616H372.149V509H369.485V502.616H367.253V500.504H374.405ZM379.399 509L377.803 505.952H377.791V509H375.127V500.504H379.087C379.775 500.504 380.363 500.628 380.851 500.876C381.339 501.116 381.703 501.448 381.943 501.872C382.191 502.288 382.315 502.76 382.315 503.288C382.315 503.856 382.155 504.36 381.835 504.8C381.523 505.24 381.071 505.556 380.479 505.748L382.327 509H379.399ZM377.791 504.176H378.847C379.103 504.176 379.295 504.12 379.423 504.008C379.551 503.888 379.615 503.704 379.615 503.456C379.615 503.232 379.547 503.056 379.411 502.928C379.283 502.8 379.095 502.736 378.847 502.736H377.791V504.176ZM388.614 507.716H385.782L385.362 509H382.566L385.674 500.504H388.746L391.842 509H389.034L388.614 507.716ZM387.966 505.712L387.198 503.348L386.43 505.712H387.966ZM396.72 509L395.124 505.952H395.112V509H392.448V500.504H396.408C397.096 500.504 397.684 500.628 398.172 500.876C398.66 501.116 399.024 501.448 399.264 501.872C399.512 502.288 399.636 502.76 399.636 503.288C399.636 503.856 399.476 504.36 399.156 504.8C398.844 505.24 398.392 505.556 397.8 505.748L399.648 509H396.72ZM395.112 504.176H396.168C396.424 504.176 396.616 504.12 396.744 504.008C396.872 503.888 396.936 503.704 396.936 503.456C396.936 503.232 396.868 503.056 396.732 502.928C396.604 502.8 396.416 502.736 396.168 502.736H395.112V504.176Z" fill="white"/>
<path d="M799.475 726.74C799.475 725.9 799.643 725.152 799.979 724.496C800.323 723.84 800.811 723.332 801.443 722.972C802.075 722.604 802.819 722.42 803.675 722.42C804.411 722.42 805.067 722.56 805.643 722.84C806.227 723.112 806.699 723.5 807.059 724.004C807.427 724.508 807.671 725.096 807.791 725.768H804.983C804.855 725.488 804.671 725.272 804.431 725.12C804.199 724.96 803.931 724.88 803.627 724.88C803.179 724.88 802.823 725.048 802.559 725.384C802.303 725.72 802.175 726.172 802.175 726.74C802.175 727.308 802.303 727.76 802.559 728.096C802.823 728.432 803.179 728.6 803.627 728.6C803.931 728.6 804.199 728.524 804.431 728.372C804.671 728.212 804.855 727.992 804.983 727.712H807.791C807.671 728.384 807.427 728.972 807.059 729.476C806.699 729.98 806.227 730.372 805.643 730.652C805.067 730.924 804.411 731.06 803.675 731.06C802.819 731.06 802.075 730.88 801.443 730.52C800.811 730.152 800.323 729.64 799.979 728.984C799.643 728.328 799.475 727.58 799.475 726.74ZM814.198 729.716H811.366L810.946 731H808.15L811.258 722.504H814.33L817.426 731H814.618L814.198 729.716ZM813.55 727.712L812.782 725.348L812.014 727.712H813.55ZM821.572 722.504C822.46 722.504 823.236 722.684 823.9 723.044C824.572 723.404 825.088 723.904 825.448 724.544C825.808 725.184 825.988 725.912 825.988 726.728C825.988 727.536 825.808 728.264 825.448 728.912C825.088 729.56 824.572 730.072 823.9 730.448C823.236 730.816 822.46 731 821.572 731H818.032V722.504H821.572ZM821.332 728.624C821.932 728.624 822.408 728.46 822.76 728.132C823.112 727.804 823.288 727.336 823.288 726.728C823.288 726.12 823.112 725.652 822.76 725.324C822.408 724.996 821.932 724.832 821.332 724.832H820.696V728.624H821.332ZM832.398 729.716H829.566L829.146 731H826.35L829.458 722.504H832.53L835.626 731H832.818L832.398 729.716ZM831.75 727.712L830.982 725.348L830.214 727.712H831.75ZM839.555 731.084C838.539 731.084 837.699 730.848 837.035 730.376C836.379 729.896 836.023 729.196 835.967 728.276H838.799C838.839 728.764 839.055 729.008 839.447 729.008C839.591 729.008 839.711 728.976 839.807 728.912C839.911 728.84 839.963 728.732 839.963 728.588C839.963 728.388 839.855 728.228 839.639 728.108C839.423 727.98 839.087 727.836 838.631 727.676C838.087 727.484 837.635 727.296 837.275 727.112C836.923 726.928 836.619 726.66 836.363 726.308C836.107 725.956 835.983 725.504 835.991 724.952C835.991 724.4 836.131 723.932 836.411 723.548C836.699 723.156 837.087 722.86 837.575 722.66C838.071 722.46 838.627 722.36 839.243 722.36C840.283 722.36 841.107 722.6 841.715 723.08C842.331 723.56 842.655 724.236 842.687 725.108H839.819C839.811 724.868 839.751 724.696 839.639 724.592C839.527 724.488 839.391 724.436 839.231 724.436C839.119 724.436 839.027 724.476 838.955 724.556C838.883 724.628 838.847 724.732 838.847 724.868C838.847 725.06 838.951 725.22 839.159 725.348C839.375 725.468 839.715 725.616 840.179 725.792C840.715 725.992 841.155 726.184 841.499 726.368C841.851 726.552 842.155 726.808 842.411 727.136C842.667 727.464 842.795 727.876 842.795 728.372C842.795 728.892 842.667 729.36 842.411 729.776C842.155 730.184 841.783 730.504 841.295 730.736C840.807 730.968 840.227 731.084 839.555 731.084ZM850.403 722.504V724.616H848.147V731H845.483V724.616H843.251V722.504H850.403ZM855.397 731L853.801 727.952H853.789V731H851.125V722.504H855.085C855.773 722.504 856.361 722.628 856.849 722.876C857.337 723.116 857.701 723.448 857.941 723.872C858.189 724.288 858.313 724.76 858.313 725.288C858.313 725.856 858.153 726.36 857.833 726.8C857.521 727.24 857.069 727.556 856.477 727.748L858.325 731H855.397ZM853.789 726.176H854.845C855.101 726.176 855.293 726.12 855.421 726.008C855.549 725.888 855.613 725.704 855.613 725.456C855.613 725.232 855.545 725.056 855.409 724.928C855.281 724.8 855.093 724.736 854.845 724.736H853.789V726.176ZM864.612 729.716H861.78L861.36 731H858.564L861.672 722.504H864.744L867.84 731H865.032L864.612 729.716ZM863.964 727.712L863.196 725.348L862.428 727.712H863.964ZM872.718 731L871.122 727.952H871.11V731H868.446V722.504H872.406C873.094 722.504 873.682 722.628 874.17 722.876C874.658 723.116 875.022 723.448 875.262 723.872C875.51 724.288 875.634 724.76 875.634 725.288C875.634 725.856 875.474 726.36 875.154 726.8C874.842 727.24 874.39 727.556 873.798 727.748L875.646 731H872.718ZM871.11 726.176H872.166C872.422 726.176 872.614 726.12 872.742 726.008C872.87 725.888 872.934 725.704 872.934 725.456C872.934 725.232 872.866 725.056 872.73 724.928C872.602 724.8 872.414 724.736 872.166 724.736H871.11V726.176Z" fill="white"/>
<path d="M648.54 303.61C648.54 302.35 648.792 301.228 649.296 300.244C649.812 299.26 650.544 298.498 651.492 297.958C652.44 297.406 653.556 297.13 654.84 297.13C655.944 297.13 656.928 297.34 657.792 297.76C658.668 298.168 659.376 298.75 659.916 299.506C660.468 300.262 660.834 301.144 661.014 302.152H656.802C656.61 301.732 656.334 301.408 655.974 301.18C655.626 300.94 655.224 300.82 654.768 300.82C654.096 300.82 653.562 301.072 653.166 301.576C652.782 302.08 652.59 302.758 652.59 303.61C652.59 304.462 652.782 305.14 653.166 305.644C653.562 306.148 654.096 306.4 654.768 306.4C655.224 306.4 655.626 306.286 655.974 306.058C656.334 305.818 656.61 305.488 656.802 305.068H661.014C660.834 306.076 660.468 306.958 659.916 307.714C659.376 308.47 658.668 309.058 657.792 309.478C656.928 309.886 655.944 310.09 654.84 310.09C653.556 310.09 652.44 309.82 651.492 309.28C650.544 308.728 649.812 307.96 649.296 306.976C648.792 305.992 648.54 304.87 648.54 303.61ZM666.449 301.72C666.857 301.132 667.355 300.664 667.943 300.316C668.531 299.956 669.143 299.776 669.779 299.776V304.042H668.645C667.889 304.042 667.331 304.174 666.971 304.438C666.623 304.702 666.449 305.17 666.449 305.842V310H662.453V299.848H666.449V301.72ZM672.871 299.038C672.175 299.038 671.617 298.852 671.197 298.48C670.777 298.108 670.567 297.64 670.567 297.076C670.567 296.5 670.777 296.026 671.197 295.654C671.617 295.27 672.175 295.078 672.871 295.078C673.555 295.078 674.107 295.27 674.527 295.654C674.947 296.026 675.157 296.5 675.157 297.076C675.157 297.64 674.947 298.108 674.527 298.48C674.107 298.852 673.555 299.038 672.871 299.038ZM674.851 299.848V310H670.855V299.848H674.851ZM686.484 304.834C686.484 305.11 686.466 305.374 686.43 305.626H680.004C680.064 306.502 680.43 306.94 681.102 306.94C681.534 306.94 681.846 306.742 682.038 306.346H686.268C686.124 307.066 685.818 307.714 685.35 308.29C684.894 308.854 684.312 309.304 683.604 309.64C682.908 309.964 682.14 310.126 681.3 310.126C680.292 310.126 679.392 309.916 678.6 309.496C677.82 309.076 677.208 308.476 676.764 307.696C676.332 306.904 676.116 305.98 676.116 304.924C676.116 303.868 676.332 302.95 676.764 302.17C677.208 301.378 677.82 300.772 678.6 300.352C679.392 299.932 680.292 299.722 681.3 299.722C682.308 299.722 683.202 299.932 683.982 300.352C684.774 300.76 685.386 301.348 685.818 302.116C686.262 302.884 686.484 303.79 686.484 304.834ZM682.434 303.88C682.434 303.544 682.326 303.292 682.11 303.124C681.894 302.944 681.624 302.854 681.3 302.854C680.592 302.854 680.178 303.196 680.058 303.88H682.434ZM695.324 310.126C694.364 310.126 693.512 309.97 692.768 309.658C692.036 309.346 691.454 308.914 691.022 308.362C690.59 307.81 690.344 307.186 690.284 306.49H694.118C694.166 306.79 694.292 307.012 694.496 307.156C694.712 307.3 694.982 307.372 695.306 307.372C695.51 307.372 695.672 307.33 695.792 307.246C695.912 307.15 695.972 307.036 695.972 306.904C695.972 306.676 695.846 306.514 695.594 306.418C695.342 306.322 694.916 306.214 694.316 306.094C693.584 305.95 692.978 305.794 692.498 305.626C692.03 305.458 691.616 305.17 691.256 304.762C690.908 304.354 690.734 303.79 690.734 303.07C690.734 302.446 690.896 301.882 691.22 301.378C691.556 300.862 692.048 300.46 692.696 300.172C693.344 299.872 694.13 299.722 695.054 299.722C696.422 299.722 697.49 300.058 698.258 300.73C699.038 301.402 699.506 302.278 699.662 303.358H696.116C696.056 303.082 695.93 302.872 695.738 302.728C695.546 302.572 695.288 302.494 694.964 302.494C694.76 302.494 694.604 302.536 694.496 302.62C694.388 302.692 694.334 302.806 694.334 302.962C694.334 303.166 694.46 303.322 694.712 303.43C694.964 303.526 695.366 303.628 695.918 303.736C696.65 303.88 697.268 304.042 697.772 304.222C698.276 304.402 698.714 304.714 699.086 305.158C699.458 305.59 699.644 306.19 699.644 306.958C699.644 307.558 699.47 308.098 699.122 308.578C698.774 309.058 698.27 309.436 697.61 309.712C696.962 309.988 696.2 310.126 695.324 310.126ZM711.976 299.848V310H707.98V308.452C707.668 308.932 707.248 309.322 706.72 309.622C706.204 309.922 705.586 310.072 704.866 310.072C703.702 310.072 702.79 309.682 702.13 308.902C701.482 308.122 701.158 307.066 701.158 305.734V299.848H705.136V305.23C705.136 305.71 705.262 306.094 705.514 306.382C705.778 306.658 706.126 306.796 706.558 306.796C707.002 306.796 707.35 306.658 707.602 306.382C707.854 306.094 707.98 305.71 707.98 305.23V299.848H711.976ZM713.241 304.924C713.241 303.856 713.421 302.932 713.781 302.152C714.153 301.36 714.657 300.76 715.293 300.352C715.929 299.932 716.643 299.722 717.435 299.722C718.095 299.722 718.665 299.86 719.145 300.136C719.625 300.4 719.991 300.766 720.243 301.234V299.848H724.221V310H720.243V308.614C719.991 309.082 719.625 309.454 719.145 309.73C718.665 309.994 718.095 310.126 717.435 310.126C716.643 310.126 715.929 309.922 715.293 309.514C714.657 309.094 714.153 308.494 713.781 307.714C713.421 306.922 713.241 305.992 713.241 304.924ZM720.243 304.924C720.243 304.384 720.105 303.964 719.829 303.664C719.553 303.364 719.199 303.214 718.767 303.214C718.335 303.214 717.981 303.364 717.705 303.664C717.429 303.964 717.291 304.384 717.291 304.924C717.291 305.464 717.429 305.884 717.705 306.184C717.981 306.484 718.335 306.634 718.767 306.634C719.199 306.634 719.553 306.484 719.829 306.184C720.105 305.884 720.243 305.464 720.243 304.924ZM728.534 304.924C728.534 303.868 728.75 302.95 729.182 302.17C729.626 301.378 730.238 300.772 731.018 300.352C731.81 299.932 732.71 299.722 733.718 299.722C735.038 299.722 736.148 300.094 737.048 300.838C737.96 301.582 738.536 302.614 738.776 303.934H734.546C734.39 303.406 734.084 303.142 733.628 303.142C733.304 303.142 733.046 303.292 732.854 303.592C732.674 303.892 732.584 304.336 732.584 304.924C732.584 305.512 732.674 305.956 732.854 306.256C733.046 306.556 733.304 306.706 733.628 306.706C734.084 306.706 734.39 306.442 734.546 305.914H738.776C738.536 307.234 737.96 308.266 737.048 309.01C736.148 309.754 735.038 310.126 733.718 310.126C732.71 310.126 731.81 309.916 731.018 309.496C730.238 309.076 729.626 308.476 729.182 307.696C728.75 306.904 728.534 305.98 728.534 304.924ZM744.867 310.126C743.847 310.126 742.929 309.916 742.113 309.496C741.297 309.076 740.655 308.476 740.187 307.696C739.731 306.904 739.503 305.98 739.503 304.924C739.503 303.868 739.731 302.95 740.187 302.17C740.655 301.378 741.297 300.772 742.113 300.352C742.929 299.932 743.847 299.722 744.867 299.722C745.887 299.722 746.805 299.932 747.621 300.352C748.437 300.772 749.073 301.378 749.529 302.17C749.997 302.95 750.231 303.868 750.231 304.924C750.231 305.98 749.997 306.904 749.529 307.696C749.073 308.476 748.437 309.076 747.621 309.496C746.805 309.916 745.887 310.126 744.867 310.126ZM744.867 306.67C745.239 306.67 745.551 306.526 745.803 306.238C746.055 305.938 746.181 305.5 746.181 304.924C746.181 304.348 746.055 303.916 745.803 303.628C745.551 303.328 745.239 303.178 744.867 303.178C744.495 303.178 744.183 303.328 743.931 303.628C743.679 303.916 743.553 304.348 743.553 304.924C743.553 305.5 743.673 305.938 743.913 306.238C744.165 306.526 744.483 306.67 744.867 306.67ZM758.596 299.776C759.76 299.776 760.666 300.166 761.314 300.946C761.974 301.726 762.304 302.782 762.304 304.114V310H758.326V304.618C758.326 304.138 758.194 303.76 757.93 303.484C757.678 303.196 757.336 303.052 756.904 303.052C756.46 303.052 756.112 303.196 755.86 303.484C755.608 303.76 755.482 304.138 755.482 304.618V310H751.486V299.848H755.482V301.396C755.794 300.916 756.208 300.526 756.724 300.226C757.252 299.926 757.876 299.776 758.596 299.776ZM770.355 306.598V310H768.843C766.059 310 764.667 308.614 764.667 305.842V303.178H763.407V299.848H764.667V297.4H768.663V299.848H770.319V303.178H768.663V305.914C768.663 306.154 768.717 306.328 768.825 306.436C768.945 306.544 769.137 306.598 769.401 306.598H770.355ZM771.337 304.924C771.337 303.856 771.517 302.932 771.877 302.152C772.249 301.36 772.753 300.76 773.389 300.352C774.025 299.932 774.739 299.722 775.531 299.722C776.191 299.722 776.761 299.86 777.241 300.136C777.721 300.4 778.087 300.766 778.339 301.234V299.848H782.317V310H778.339V308.614C778.087 309.082 777.721 309.454 777.241 309.73C776.761 309.994 776.191 310.126 775.531 310.126C774.739 310.126 774.025 309.922 773.389 309.514C772.753 309.094 772.249 308.494 771.877 307.714C771.517 306.922 771.337 305.992 771.337 304.924ZM778.339 304.924C778.339 304.384 778.201 303.964 777.925 303.664C777.649 303.364 777.295 303.214 776.863 303.214C776.431 303.214 776.077 303.364 775.801 303.664C775.525 303.964 775.387 304.384 775.387 304.924C775.387 305.464 775.525 305.884 775.801 306.184C776.077 306.484 776.431 306.634 776.863 306.634C777.295 306.634 777.649 306.484 777.925 306.184C778.201 305.884 778.339 305.464 778.339 304.924ZM789.493 296.41L789.025 304.942H785.605L785.137 296.41H789.493ZM787.315 310.144C786.619 310.144 786.061 309.958 785.641 309.586C785.221 309.214 785.011 308.746 785.011 308.182C785.011 307.606 785.221 307.132 785.641 306.76C786.061 306.376 786.619 306.184 787.315 306.184C787.999 306.184 788.551 306.376 788.971 306.76C789.391 307.132 789.601 307.606 789.601 308.182C789.601 308.746 789.391 309.214 788.971 309.586C788.551 309.958 787.999 310.144 787.315 310.144Z" fill="#1729CD"/>
<rect x="602" y="358" width="474" height="73" rx="16" fill="#D9D9D9"/>
<rect x="602" y="469" width="474" height="73" rx="16" fill="#D9D9D9"/>
<rect x="602" y="580" width="474" height="73" rx="16" fill="#D9D9D9"/>
<path d="M672.668 399H670.004L667.184 394.728V399H664.52V390.504H667.184L670.004 394.848V390.504H672.668V399ZM677.087 399.084C676.407 399.084 675.795 398.944 675.251 398.664C674.707 398.384 674.279 397.984 673.967 397.464C673.663 396.936 673.511 396.32 673.511 395.616C673.511 394.912 673.663 394.3 673.967 393.78C674.279 393.252 674.707 392.848 675.251 392.568C675.795 392.288 676.407 392.148 677.087 392.148C677.767 392.148 678.379 392.288 678.923 392.568C679.467 392.848 679.891 393.252 680.195 393.78C680.507 394.3 680.663 394.912 680.663 395.616C680.663 396.32 680.507 396.936 680.195 397.464C679.891 397.984 679.467 398.384 678.923 398.664C678.379 398.944 677.767 399.084 677.087 399.084ZM677.087 396.78C677.335 396.78 677.543 396.684 677.711 396.492C677.879 396.292 677.963 396 677.963 395.616C677.963 395.232 677.879 394.944 677.711 394.752C677.543 394.552 677.335 394.452 677.087 394.452C676.839 394.452 676.631 394.552 676.463 394.752C676.295 394.944 676.211 395.232 676.211 395.616C676.211 396 676.291 396.292 676.451 396.492C676.619 396.684 676.831 396.78 677.087 396.78ZM690.536 392.184C691.4 392.184 692.068 392.444 692.54 392.964C693.02 393.484 693.26 394.188 693.26 395.076V399H690.608V395.412C690.608 395.124 690.52 394.9 690.344 394.74C690.176 394.572 689.948 394.488 689.66 394.488C689.364 394.488 689.132 394.572 688.964 394.74C688.796 394.9 688.712 395.124 688.712 395.412V399H686.06V395.412C686.06 395.124 685.972 394.9 685.796 394.74C685.628 394.572 685.4 394.488 685.112 394.488C684.816 394.488 684.584 394.572 684.416 394.74C684.248 394.9 684.164 395.124 684.164 395.412V399H681.5V392.232H684.164V393.144C684.356 392.856 684.616 392.624 684.944 392.448C685.28 392.272 685.672 392.184 686.12 392.184C686.608 392.184 687.04 392.292 687.416 392.508C687.792 392.716 688.092 393.012 688.316 393.396C688.564 393.044 688.88 392.756 689.264 392.532C689.648 392.3 690.072 392.184 690.536 392.184ZM700.966 395.556C700.966 395.74 700.954 395.916 700.93 396.084H696.646C696.686 396.668 696.93 396.96 697.378 396.96C697.666 396.96 697.874 396.828 698.002 396.564H700.822C700.726 397.044 700.522 397.476 700.21 397.86C699.906 398.236 699.518 398.536 699.046 398.76C698.582 398.976 698.07 399.084 697.51 399.084C696.838 399.084 696.238 398.944 695.71 398.664C695.19 398.384 694.782 397.984 694.486 397.464C694.198 396.936 694.054 396.32 694.054 395.616C694.054 394.912 694.198 394.3 694.486 393.78C694.782 393.252 695.19 392.848 695.71 392.568C696.238 392.288 696.838 392.148 697.51 392.148C698.182 392.148 698.778 392.288 699.298 392.568C699.826 392.84 700.234 393.232 700.522 393.744C700.818 394.256 700.966 394.86 700.966 395.556ZM698.266 394.92C698.266 394.696 698.194 394.528 698.05 394.416C697.906 394.296 697.726 394.236 697.51 394.236C697.038 394.236 696.762 394.464 696.682 394.92H698.266ZM705.168 399.096C704.704 399.096 704.332 398.972 704.052 398.724C703.772 398.476 703.632 398.164 703.632 397.788C703.632 397.404 703.772 397.088 704.052 396.84C704.332 396.584 704.704 396.456 705.168 396.456C705.624 396.456 705.992 396.584 706.272 396.84C706.552 397.088 706.692 397.404 706.692 397.788C706.692 398.164 706.552 398.476 706.272 398.724C705.992 398.972 705.624 399.096 705.168 399.096ZM705.168 394.344C704.704 394.344 704.332 394.22 704.052 393.972C703.772 393.724 703.632 393.412 703.632 393.036C703.632 392.652 703.772 392.336 704.052 392.088C704.332 391.832 704.704 391.704 705.168 391.704C705.624 391.704 705.992 391.832 706.272 392.088C706.552 392.336 706.692 392.652 706.692 393.036C706.692 393.412 706.552 393.724 706.272 393.972C705.992 394.22 705.624 394.344 705.168 394.344Z" fill="black"/>
<path d="M666.112 506.628V507.672H668.752V509.676H666.112V510.876H669.112V513H663.448V504.504H669.112V506.628H666.112ZM679.152 506.184C680.016 506.184 680.684 506.444 681.156 506.964C681.636 507.484 681.876 508.188 681.876 509.076V513H679.224V509.412C679.224 509.124 679.136 508.9 678.96 508.74C678.792 508.572 678.564 508.488 678.276 508.488C677.98 508.488 677.748 508.572 677.58 508.74C677.412 508.9 677.328 509.124 677.328 509.412V513H674.676V509.412C674.676 509.124 674.588 508.9 674.412 508.74C674.244 508.572 674.016 508.488 673.728 508.488C673.432 508.488 673.2 508.572 673.032 508.74C672.864 508.9 672.78 509.124 672.78 509.412V513H670.116V506.232H672.78V507.144C672.972 506.856 673.232 506.624 673.56 506.448C673.896 506.272 674.288 506.184 674.736 506.184C675.224 506.184 675.656 506.292 676.032 506.508C676.408 506.716 676.708 507.012 676.932 507.396C677.18 507.044 677.496 506.756 677.88 506.532C678.264 506.3 678.688 506.184 679.152 506.184ZM682.67 509.616C682.67 508.904 682.79 508.288 683.03 507.768C683.278 507.24 683.614 506.84 684.038 506.568C684.462 506.288 684.938 506.148 685.466 506.148C685.906 506.148 686.286 506.24 686.606 506.424C686.926 506.6 687.17 506.844 687.338 507.156V506.232H689.99V513H687.338V512.076C687.17 512.388 686.926 512.636 686.606 512.82C686.286 512.996 685.906 513.084 685.466 513.084C684.938 513.084 684.462 512.948 684.038 512.676C683.614 512.396 683.278 511.996 683.03 511.476C682.79 510.948 682.67 510.328 682.67 509.616ZM687.338 509.616C687.338 509.256 687.246 508.976 687.062 508.776C686.878 508.576 686.642 508.476 686.354 508.476C686.066 508.476 685.83 508.576 685.646 508.776C685.462 508.976 685.37 509.256 685.37 509.616C685.37 509.976 685.462 510.256 685.646 510.456C685.83 510.656 686.066 510.756 686.354 510.756C686.642 510.756 686.878 510.656 687.062 510.456C687.246 510.256 687.338 509.976 687.338 509.616ZM692.53 505.692C692.066 505.692 691.694 505.568 691.414 505.32C691.134 505.072 690.994 504.76 690.994 504.384C690.994 504 691.134 503.684 691.414 503.436C691.694 503.18 692.066 503.052 692.53 503.052C692.986 503.052 693.354 503.18 693.634 503.436C693.914 503.684 694.054 504 694.054 504.384C694.054 504.76 693.914 505.072 693.634 505.32C693.354 505.568 692.986 505.692 692.53 505.692ZM693.85 506.232V513H691.186V506.232H693.85ZM697.717 504.12V513H695.053V504.12H697.717ZM700.24 513.096C699.776 513.096 699.404 512.972 699.124 512.724C698.844 512.476 698.704 512.164 698.704 511.788C698.704 511.404 698.844 511.088 699.124 510.84C699.404 510.584 699.776 510.456 700.24 510.456C700.696 510.456 701.064 510.584 701.344 510.84C701.624 511.088 701.764 511.404 701.764 511.788C701.764 512.164 701.624 512.476 701.344 512.724C701.064 512.972 700.696 513.096 700.24 513.096ZM700.24 508.344C699.776 508.344 699.404 508.22 699.124 507.972C698.844 507.724 698.704 507.412 698.704 507.036C698.704 506.652 698.844 506.336 699.124 506.088C699.404 505.832 699.776 505.704 700.24 505.704C700.696 505.704 701.064 505.832 701.344 506.088C701.624 506.336 701.764 506.652 701.764 507.036C701.764 507.412 701.624 507.724 701.344 507.972C701.064 508.22 700.696 508.344 700.24 508.344Z" fill="black"/>
<path d="M667.115 625.084C666.099 625.084 665.259 624.848 664.595 624.376C663.939 623.896 663.583 623.196 663.527 622.276H666.359C666.399 622.764 666.615 623.008 667.007 623.008C667.151 623.008 667.271 622.976 667.367 622.912C667.471 622.84 667.523 622.732 667.523 622.588C667.523 622.388 667.415 622.228 667.199 622.108C666.983 621.98 666.647 621.836 666.191 621.676C665.647 621.484 665.195 621.296 664.835 621.112C664.483 620.928 664.179 620.66 663.923 620.308C663.667 619.956 663.543 619.504 663.551 618.952C663.551 618.4 663.691 617.932 663.971 617.548C664.259 617.156 664.647 616.86 665.135 616.66C665.631 616.46 666.187 616.36 666.803 616.36C667.843 616.36 668.667 616.6 669.275 617.08C669.891 617.56 670.215 618.236 670.247 619.108H667.379C667.371 618.868 667.311 618.696 667.199 618.592C667.087 618.488 666.951 618.436 666.791 618.436C666.679 618.436 666.587 618.476 666.515 618.556C666.443 618.628 666.407 618.732 666.407 618.868C666.407 619.06 666.511 619.22 666.719 619.348C666.935 619.468 667.275 619.616 667.739 619.792C668.275 619.992 668.715 620.184 669.059 620.368C669.411 620.552 669.715 620.808 669.971 621.136C670.227 621.464 670.355 621.876 670.355 622.372C670.355 622.892 670.227 623.36 669.971 623.776C669.715 624.184 669.343 624.504 668.855 624.736C668.367 624.968 667.787 625.084 667.115 625.084ZM677.843 621.556C677.843 621.74 677.831 621.916 677.807 622.084H673.523C673.563 622.668 673.807 622.96 674.255 622.96C674.543 622.96 674.751 622.828 674.879 622.564H677.699C677.603 623.044 677.399 623.476 677.087 623.86C676.783 624.236 676.395 624.536 675.923 624.76C675.459 624.976 674.947 625.084 674.387 625.084C673.715 625.084 673.115 624.944 672.587 624.664C672.067 624.384 671.659 623.984 671.363 623.464C671.075 622.936 670.931 622.32 670.931 621.616C670.931 620.912 671.075 620.3 671.363 619.78C671.659 619.252 672.067 618.848 672.587 618.568C673.115 618.288 673.715 618.148 674.387 618.148C675.059 618.148 675.655 618.288 676.175 618.568C676.703 618.84 677.111 619.232 677.399 619.744C677.695 620.256 677.843 620.86 677.843 621.556ZM675.143 620.92C675.143 620.696 675.071 620.528 674.927 620.416C674.783 620.296 674.603 620.236 674.387 620.236C673.915 620.236 673.639 620.464 673.559 620.92H675.143ZM683.426 618.184C684.202 618.184 684.806 618.444 685.238 618.964C685.678 619.484 685.898 620.188 685.898 621.076V625H683.246V621.412C683.246 621.092 683.158 620.84 682.982 620.656C682.814 620.464 682.586 620.368 682.298 620.368C682.002 620.368 681.77 620.464 681.602 620.656C681.434 620.84 681.35 621.092 681.35 621.412V625H678.686V618.232H681.35V619.264C681.558 618.944 681.834 618.684 682.178 618.484C682.53 618.284 682.946 618.184 683.426 618.184ZM691.793 618.184C692.569 618.184 693.173 618.444 693.605 618.964C694.045 619.484 694.265 620.188 694.265 621.076V625H691.613V621.412C691.613 621.092 691.525 620.84 691.349 620.656C691.181 620.464 690.953 620.368 690.665 620.368C690.369 620.368 690.137 620.464 689.969 620.656C689.801 620.84 689.717 621.092 689.717 621.412V625H687.053V616.12H689.717V619.264C689.925 618.944 690.201 618.684 690.545 618.484C690.897 618.284 691.313 618.184 691.793 618.184ZM695.06 621.616C695.06 620.904 695.18 620.288 695.42 619.768C695.668 619.24 696.004 618.84 696.428 618.568C696.852 618.288 697.328 618.148 697.856 618.148C698.296 618.148 698.676 618.24 698.996 618.424C699.316 618.6 699.56 618.844 699.728 619.156V618.232H702.38V625H699.728V624.076C699.56 624.388 699.316 624.636 698.996 624.82C698.676 624.996 698.296 625.084 697.856 625.084C697.328 625.084 696.852 624.948 696.428 624.676C696.004 624.396 695.668 623.996 695.42 623.476C695.18 622.948 695.06 622.328 695.06 621.616ZM699.728 621.616C699.728 621.256 699.636 620.976 699.452 620.776C699.268 620.576 699.032 620.476 698.744 620.476C698.456 620.476 698.22 620.576 698.036 620.776C697.852 620.976 697.76 621.256 697.76 621.616C697.76 621.976 697.852 622.256 698.036 622.456C698.22 622.656 698.456 622.756 698.744 622.756C699.032 622.756 699.268 622.656 699.452 622.456C699.636 622.256 699.728 621.976 699.728 621.616ZM704.897 625.096C704.433 625.096 704.061 624.972 703.781 624.724C703.501 624.476 703.361 624.164 703.361 623.788C703.361 623.404 703.501 623.088 703.781 622.84C704.061 622.584 704.433 622.456 704.897 622.456C705.353 622.456 705.721 622.584 706.001 622.84C706.281 623.088 706.421 623.404 706.421 623.788C706.421 624.164 706.281 624.476 706.001 624.724C705.721 624.972 705.353 625.096 704.897 625.096ZM704.897 620.344C704.433 620.344 704.061 620.22 703.781 619.972C703.501 619.724 703.361 619.412 703.361 619.036C703.361 618.652 703.501 618.336 703.781 618.088C704.061 617.832 704.433 617.704 704.897 617.704C705.353 617.704 705.721 617.832 706.001 618.088C706.281 618.336 706.421 618.652 706.421 619.036C706.421 619.412 706.281 619.724 706.001 619.972C705.721 620.22 705.353 620.344 704.897 620.344Z" fill="black"/>
<defs>
<filter id="filter0_d_1_2" x="243" y="214" width="964" height="603" filterUnits="userSpaceOnUse" color-interpolation-filters="sRGB">
<feFlood flood-opacity="0" result="BackgroundImageFix"/>
<feColorMatrix in="SourceAlpha" type="matrix" values="0 0 0 0 0 0 0 0 0 0 0 0 0 0 0 0 0 0 127 0" result="hardAlpha"/>
<feOffset dx="5" dy="4"/>
<feGaussianBlur stdDeviation="5"/>
<feComposite in2="hardAlpha" operator="out"/>
<feColorMatrix type="matrix" values="0 0 0 0 0 0 0 0 0 0 0 0 0 0 0 0 0 0 0.25 0"/>
<feBlend mode="normal" in2="BackgroundImageFix" result="effect1_dropShadow_1_2"/>
<feBlend mode="normal" in="SourceGraphic" in2="effect1_dropShadow_1_2" result="shape"/>
</filter>
</defs>
</svg>
